<svg width="25" height="25" viewBox="0 0 25 25" fill="none" xmlns="http://www.w3.org/2000/svg">
<mask id="mask0_403_2312" style="mask-type:alpha" maskUnits="userSpaceOnUse" x="0" y="0" width="25" height="25">
<rect x="0.922852" y="0.934235" width="24" height="24" fill="#D9D9D9"/>
</mask>
<g mask="url(#mask0_403_2312)">
<path d="M4.92285 21.9342C3.81828 21.9342 2.92285 21.0388 2.92285 19.9342V5.93423C2.92285 4.82967 3.81828 3.93423 4.92285 3.93423H10.9229C12.0274 3.93423 12.9229 4.82967 12.9229 5.93423V5.93423C12.9229 7.0388 13.8183 7.93423 14.9229 7.93423H20.9229C22.0274 7.93423 22.9229 8.82967 22.9229 9.93423V14.9342C22.9229 15.4865 22.4751 15.9342 21.9229 15.9342V15.9342C21.3706 15.9342 20.9229 15.4865 20.9229 14.9342V11.9342C20.9229 10.8297 20.0274 9.93423 18.9229 9.93423H13.9229C13.3706 9.93423 12.9229 10.3819 12.9229 10.9342V10.9342C12.9229 11.4865 13.3706 11.9342 13.9229 11.9342V11.9342C14.4751 11.9342 14.9229 12.3819 14.9229 12.9342V12.9342C14.9229 13.4865 14.4751 13.9342 13.9229 13.9342V13.9342C13.3706 13.9342 12.9229 14.3819 12.9229 14.9342V14.9342C12.9229 15.4865 13.3706 15.9342 13.9229 15.9342V15.9342C14.4751 15.9342 14.9229 16.3819 14.9229 16.9342V16.9342C14.9229 17.4865 14.4751 17.9342 13.9229 17.9342V17.9342C13.3706 17.9342 12.9229 18.3819 12.9229 18.9342V18.9342C12.9229 19.4865 13.3706 19.9342 13.9229 19.9342H15.9229C16.4751 19.9342 16.9229 20.3819 16.9229 20.9342V20.9342C16.9229 21.4865 16.4751 21.9342 15.9229 21.9342H4.92285ZM4.92285 18.9342C4.92285 19.4865 5.37057 19.9342 5.92285 19.9342V19.9342C6.47514 19.9342 6.92285 19.4865 6.92285 18.9342V18.9342C6.92285 18.3819 6.47514 17.9342 5.92285 17.9342V17.9342C5.37057 17.9342 4.92285 18.3819 4.92285 18.9342V18.9342ZM4.92285 14.9342C4.92285 15.4865 5.37057 15.9342 5.92285 15.9342V15.9342C6.47514 15.9342 6.92285 15.4865 6.92285 14.9342V14.9342C6.92285 14.3819 6.47514 13.9342 5.92285 13.9342V13.9342C5.37057 13.9342 4.92285 14.3819 4.92285 14.9342V14.9342ZM4.92285 10.9342C4.92285 11.4865 5.37057 11.9342 5.92285 11.9342V11.9342C6.47514 11.9342 6.92285 11.4865 6.92285 10.9342V10.9342C6.92285 10.3819 6.47514 9.93423 5.92285 9.93423V9.93423C5.37057 9.93423 4.92285 10.3819 4.92285 10.9342V10.9342ZM4.92285 6.93423C4.92285 7.48652 5.37057 7.93423 5.92285 7.93423V7.93423C6.47514 7.93423 6.92285 7.48652 6.92285 6.93423V6.93423C6.92285 6.38195 6.47514 5.93423 5.92285 5.93423V5.93423C5.37057 5.93423 4.92285 6.38195 4.92285 6.93423V6.93423ZM8.92285 18.9342C8.92285 19.4865 9.37057 19.9342 9.92285 19.9342V19.9342C10.4751 19.9342 10.9229 19.4865 10.9229 18.9342V18.9342C10.9229 18.3819 10.4751 17.9342 9.92285 17.9342V17.9342C9.37057 17.9342 8.92285 18.3819 8.92285 18.9342V18.9342ZM8.92285 14.9342C8.92285 15.4865 9.37057 15.9342 9.92285 15.9342V15.9342C10.4751 15.9342 10.9229 15.4865 10.9229 14.9342V14.9342C10.9229 14.3819 10.4751 13.9342 9.92285 13.9342V13.9342C9.37057 13.9342 8.92285 14.3819 8.92285 14.9342V14.9342ZM8.92285 10.9342C8.92285 11.4865 9.37057 11.9342 9.92285 11.9342V11.9342C10.4751 11.9342 10.9229 11.4865 10.9229 10.9342V10.9342C10.9229 10.3819 10.4751 9.93423 9.92285 9.93423V9.93423C9.37057 9.93423 8.92285 10.3819 8.92285 10.9342V10.9342ZM8.92285 6.93423C8.92285 7.48652 9.37057 7.93423 9.92285 7.93423V7.93423C10.4751 7.93423 10.9229 7.48652 10.9229 6.93423V6.93423C10.9229 6.38195 10.4751 5.93423 9.92285 5.93423V5.93423C9.37057 5.93423 8.92285 6.38195 8.92285 6.93423V6.93423ZM21.9229 23.9342C21.3706 23.9342 20.9229 23.4865 20.9229 22.9342V22.9342C20.9229 22.3819 20.4751 21.9342 19.9229 21.9342V21.9342C19.3706 21.9342 18.9229 21.4865 18.9229 20.9342V20.9342C18.9229 20.3819 19.3706 19.9342 19.9229 19.9342V19.9342C20.4751 19.9342 20.9229 19.4865 20.9229 18.9342V18.9342C20.9229 18.3819 21.3706 17.9342 21.9229 17.9342V17.9342C22.4751 17.9342 22.9229 18.3819 22.9229 18.9342V18.9342C22.9229 19.4865 23.3706 19.9342 23.9229 19.9342V19.9342C24.4751 19.9342 24.9229 20.3819 24.9229 20.9342V20.9342C24.9229 21.4865 24.4751 21.9342 23.9229 21.9342V21.9342C23.3706 21.9342 22.9229 22.3819 22.9229 22.9342V22.9342C22.9229 23.4865 22.4751 23.9342 21.9229 23.9342V23.9342ZM17.9229 13.9342C17.3706 13.9342 16.9229 13.4865 16.9229 12.9342V12.9342C16.9229 12.3819 17.3706 11.9342 17.9229 11.9342V11.9342C18.4751 11.9342 18.9229 12.3819 18.9229 12.9342V12.9342C18.9229 13.4865 18.4751 13.9342 17.9229 13.9342V13.9342ZM17.9229 17.9342C17.3706 17.9342 16.9229 17.4865 16.9229 16.9342V16.9342C16.9229 16.3819 17.3706 15.9342 17.9229 15.9342V15.9342C18.4751 15.9342 18.9229 16.3819 18.9229 16.9342V16.9342C18.9229 17.4865 18.4751 17.9342 17.9229 17.9342V17.9342Z" fill="#6D92FF"/>
</g>
</svg>
